<?xml version="1.0"?>
<svg xmlns="http://www.w3.org/2000/svg" height="512px" viewBox="0 0 128 128" width="512px" class=""><g><g><path d="m6.306 39.363h115.387v82.331h-115.387z" fill="#dfeef4" data-original="#DFEEF4" class=""/><path d="m6.306 15.838h115.387v23.525h-115.387z" fill="#f45858" data-original="#F45858" class="" style="fill:#F35588" data-old_color="#f45858"/><path d="m60.269 6.306h7.462v19.062h-7.462z" fill="#6d7a84" data-original="#6D7A84" class=""/><path d="m90.052 6.306h7.462v19.062h-7.462z" fill="#6d7a84" data-original="#6D7A84" class=""/><path d="m30.486 6.306h7.462v19.062h-7.462z" fill="#6d7a84" data-original="#6D7A84" class=""/><g fill="#3ea2e5"><circle cx="27.661" cy="57.048" r="6.283" data-original="#3EA2E5" class="active-path" style="fill:#F35588" data-old_color="#3EA2E5"/><circle cx="51.887" cy="57.048" r="6.283" data-original="#3EA2E5" class="active-path" style="fill:#F35588" data-old_color="#3EA2E5"/><circle cx="76.113" cy="57.048" r="6.283" data-original="#3EA2E5" class="active-path" style="fill:#F35588" data-old_color="#3EA2E5"/><circle cx="100.339" cy="57.048" r="6.283" data-original="#3EA2E5" class="active-path" style="fill:#F35588" data-old_color="#3EA2E5"/><circle cx="27.661" cy="80.528" r="6.283" data-original="#3EA2E5" class="active-path" style="fill:#F35588" data-old_color="#3EA2E5"/><circle cx="51.887" cy="80.528" r="6.283" data-original="#3EA2E5" class="active-path" style="fill:#F35588" data-old_color="#3EA2E5"/><circle cx="76.113" cy="80.528" r="6.283" data-original="#3EA2E5" class="active-path" style="fill:#F35588" data-old_color="#3EA2E5"/><circle cx="100.339" cy="80.528" r="6.283" data-original="#3EA2E5" class="active-path" style="fill:#F35588" data-old_color="#3EA2E5"/><circle cx="27.661" cy="104.009" r="6.283" data-original="#3EA2E5" class="active-path" style="fill:#F35588" data-old_color="#3EA2E5"/><circle cx="51.887" cy="104.009" r="6.283" data-original="#3EA2E5" class="active-path" style="fill:#F35588" data-old_color="#3EA2E5"/><circle cx="76.113" cy="104.009" r="6.283" data-original="#3EA2E5" class="active-path" style="fill:#F35588" data-old_color="#3EA2E5"/><circle cx="100.339" cy="104.009" r="6.283" data-original="#3EA2E5" class="active-path" style="fill:#F35588" data-old_color="#3EA2E5"/></g></g></g> </svg>
